<svg xmlns="http://www.w3.org/2000/svg" width="217" height="155" viewBox="0 0 217 155" fill="none"><path d="M57.1111 82.4351C54.9292 82.7187 54.7939 82.8923 54.7939 84.9581V87.8622C54.7939 89.056 54.8277 90.2117 55.0095 91.1515C52.8149 91.6595 50.0029 92.4088 47.0725 92.4088C39.0974 92.4088 34.2641 87.4727 34.2641 80.5174C34.2641 73.1218 40.3237 68.7996 47.3389 68.7996C50.819 68.7996 53.4534 69.5151 54.5613 69.6971C54.6374 70.9671 54.8192 73.1176 55.1026 75.3951L53.9693 75.6237C53.1574 72.6265 52.0664 71.3438 49.9479 70.6242C49.1149 70.3321 47.7533 70.1712 46.7257 70.1712C41.4062 70.1712 37.9726 73.7653 37.9726 80.1025C37.9726 85.5085 40.8395 91.0202 47.6011 91.0202C48.7681 91.0202 49.8084 90.7959 50.5019 90.4445C51.2038 90.0466 51.6732 89.619 51.6732 88.1628V85.5C51.6732 82.9346 51.4237 82.6764 47.9732 82.4266V81.3133H57.1111V82.4351V82.4351Z" fill="#00AA94"></path><path d="M83.8527 91.8838C83.3664 91.8838 80.0174 91.9261 79.5353 91.8838C77.0573 91.7102 75.6746 91.253 74.1143 89.0602C72.8457 87.3161 71.5856 85.1528 70.4988 83.4172C69.8265 82.3546 69.3444 82.1176 67.6234 82.1176H66.2956V87.4092C66.2956 90.364 66.672 90.5376 69.5051 90.8001V91.8838H60.0415V90.8001C62.9719 90.508 63.213 90.3683 63.213 87.4092V73.7399C63.213 70.7723 62.8366 70.6665 60.0415 70.3829V69.2991H69.0653C71.6194 69.2991 73.3616 69.6039 74.6978 70.4675C76.1609 71.3777 77.1335 72.9567 77.1335 75.103C77.1335 78.1256 75.1756 79.9967 72.6342 81.0804C73.2516 82.1514 74.7443 84.429 75.793 85.9953C77.0996 87.8579 77.8523 88.9586 78.6727 89.8264C79.6029 90.8128 83.0662 90.5969 83.8527 90.8043V91.8838ZM68.0124 80.8306C69.8518 80.8306 71.0189 80.5385 71.8858 79.8231C73.2347 78.8283 73.776 77.4736 73.776 75.611C73.776 71.9195 71.2896 70.5987 68.6171 70.5987C67.5684 70.5987 66.951 70.7427 66.7058 70.9586C66.4056 71.2041 66.2956 71.5851 66.2956 72.4529V80.8264H68.0124V80.8306Z" fill="#00AA94"></path><path d="M96.9951 79.5014V83.794H95.9591C95.5489 81.2413 95.2994 80.9449 93.0287 80.9449H89.7008V87.6166C89.7008 90.0762 90.3309 90.3768 91.9758 90.4106H93.9505C95.7646 90.4106 96.124 90.1482 96.809 89.2338C97.3714 88.5395 97.4137 88.404 97.8493 87.2991L98.8641 87.5785C98.6823 88.5437 98.4836 90.8636 98.1918 91.8838H83.8569V90.8001C86.7746 90.5715 86.9649 90.2497 86.9649 87.4134V73.8542C86.9649 70.7766 86.6351 70.6072 84.2713 70.3786V69.2949H93.8617C96.475 69.2949 97.7732 69.261 98.3525 69.2272C98.3821 70.0484 98.3398 72.6985 98.2172 74.5781L97.2108 74.7516C96.9317 73.5578 96.6061 72.7577 96.272 72.0677C95.7942 71.0179 95.5489 70.7681 93.6799 70.7681H90.7453C89.7685 70.7681 89.7093 70.8655 89.7093 71.8857V79.4125H93.0583L96.9951 79.5014Z" fill="#00AA94"></path><path d="M115.343 79.5014V83.794H114.307C113.897 81.2413 113.647 80.9449 111.377 80.9449H108.049V87.6166C108.049 90.0762 108.679 90.3768 110.324 90.4106H112.298C114.112 90.4106 114.472 90.1482 115.157 89.2338C115.719 88.5395 115.762 88.404 116.197 87.2991L117.212 87.5785C117.03 88.5437 116.831 90.8636 116.54 91.8838H102.205V90.8001C105.122 90.5715 105.313 90.2497 105.313 87.4134V73.8542C105.313 70.7766 104.983 70.6072 102.619 70.3786V69.2949H112.21C114.823 69.2949 116.121 69.261 116.7 69.2272C116.73 70.0484 116.688 72.6985 116.565 74.5781L115.559 74.7516C115.279 73.5578 114.954 72.7577 114.62 72.0677C114.142 71.0179 113.897 70.7681 112.028 70.7681H109.093C108.116 70.7681 108.057 70.8655 108.057 71.8857V79.4125H111.406L115.343 79.5014Z" fill="#00AA94"></path><path d="M136.562 69.2949V70.3786C139.467 70.5437 140.363 71.0094 140.49 72.5588C140.609 73.5833 140.689 75.103 140.689 78.3711V86.6642L125.052 69.2949H123.415V82.6044C123.415 85.7371 123.352 87.3288 123.225 88.4633C123.064 90.1228 122.168 90.6392 119.872 90.8001V91.8838H129.06V90.8001C126.396 90.6096 125.453 90.1016 125.352 88.3532C125.272 87.3372 125.166 85.7371 125.166 82.6298V74.1251L140.93 92.1801H142.469V78.3711C142.469 75.103 142.541 73.6044 142.6 72.4995C142.731 70.9544 143.564 70.5945 145.894 70.3786V69.2949H136.562Z" fill="#00AA94"></path><path d="M161.553 93.0014V92.5569C163.595 92.1844 164.149 91.8881 163.705 90.5503C163.223 88.9544 162.297 86.2408 161.181 83.159H153.722C152.905 85.5381 152.199 87.4304 151.645 89.2126C150.829 91.7399 151.387 91.9981 154.204 92.5569V93.0014H146.448V92.5569C148.529 92.1844 149.159 91.9262 150.529 88.4337L158.246 68.4102L158.766 68.334C161.067 75.0946 163.477 81.8932 165.963 88.802C167.113 92.032 167.557 92.032 169.896 92.5527V92.9972H161.553V93.0014ZM157.548 72.6096C156.36 75.7677 155.248 78.9977 154.098 82.0837H160.851L157.548 72.6096Z" fill="white"></path><path d="M192.502 93.1877C192.206 93.1877 191.314 93.1877 191.056 93.1496C187.939 92.9633 187.195 92.5908 185.711 90.5884C184.484 88.8782 182.704 85.9064 181.406 83.6797C180.442 82.0456 180.032 81.8213 178.142 81.8213H176.581V88.8782C176.581 91.7399 176.877 92.1463 179.846 92.5569V93.0014H170.716V92.5569C173.609 92.1124 173.943 91.8161 173.943 88.8782V72.9059C173.943 70.0442 173.685 69.7479 170.716 69.3034V68.8589H179.584C182.108 68.8589 184.112 69.2695 185.449 70.2347C186.785 71.1279 187.711 72.8001 187.711 74.8024C187.711 77.8504 185.668 79.9671 182.962 81.1566C183.668 82.4181 185.372 85.2418 186.489 86.9139C187.749 88.8443 188.713 90.2582 189.567 91.1853C190.493 92.1886 191.128 92.4849 192.612 92.7474L192.502 93.1877ZM178.844 81.0804C180.7 81.0804 181.736 81.0042 182.776 80.2634C184.26 79.222 184.742 77.7023 184.742 75.4713C184.742 71.42 182.518 69.5997 179.364 69.5997C177.989 69.5997 177.321 69.7479 177.025 69.9341C176.691 70.1585 176.581 70.4929 176.581 71.6783V81.0762H178.844V81.0804Z" fill="white"></path><path d="M216.009 87.3923C215.674 88.6199 214.6 91.778 214.042 92.7051C213.078 92.9633 210.406 93.5602 207.881 93.5602C198.752 93.5602 194.523 87.4304 194.523 81.0042C194.523 73.2404 200.126 68.3382 208.511 68.3382C211.48 68.3382 213.742 68.969 214.93 69.1171C215.116 70.8274 215.264 72.8678 215.488 74.3918L214.896 74.5019C214.228 72.2371 213.67 70.603 211.594 69.8199C210.406 69.3754 208.773 69.1891 207.399 69.1891C200.832 69.1891 197.716 74.4638 197.716 80.3354C197.716 87.7267 201.428 92.7051 208.033 92.7051C212.19 92.7051 213.86 90.326 215.417 87.206L216.009 87.3923Z" fill="white"></path><path d="M19.2949 77.4779C19.2949 115.294 49.9183 145.952 87.6922 145.952C107.74 145.952 125.771 137.32 138.283 123.562C138.296 123.549 138.308 123.532 138.325 123.515C144.148 117.102 148.774 109.571 151.84 101.286C141.805 132.43 112.615 154.96 78.1695 154.96C35.427 154.96 0.777985 120.268 0.777985 77.4779C0.777985 34.6877 35.427 0 78.1695 0C112.615 0 141.805 22.5296 151.84 53.6698C148.774 45.3852 144.148 37.8542 138.325 31.4407C138.3 31.4111 138.275 31.3857 138.249 31.3603C125.741 17.6232 107.723 9.00423 87.6922 9.00423C49.9183 9.00423 19.2949 39.6618 19.2949 77.4779Z" fill="#00AA94"></path><path d="M138.283 123.562C125.462 138.23 106.624 147.497 85.6245 147.497C47.0006 147.497 15.688 116.149 15.688 77.4779C15.688 38.8109 47.0006 7.46332 85.6245 7.46332C106.607 7.46332 125.432 16.7131 138.249 31.3603C125.741 17.6232 107.723 9.00424 87.6922 9.00424C49.9183 9.00424 19.2949 39.6618 19.2949 77.4779C19.2949 115.294 49.9183 145.952 87.6922 145.952C107.74 145.952 125.771 137.32 138.283 123.562Z" fill="#004478"></path></svg>