<svg id="Layer_2" data-name="Layer 2" xmlns="http://www.w3.org/2000/svg" width="146.482" height="39.117"><defs><style>.cls-2{fill:#00498d}</style></defs><g id="Layer_1" data-name="Layer 1"><path id="Path_1" data-name="Path 1" d="M141.385 43.369c-4.311 0-7.1 3.1-7.1 7.918v8.543H137v-8.557c0-3.352 1.641-5.358 4.4-5.358s4.4 2.006 4.4 5.358v8.556h2.7v-8.556c0-4.8-2.784-7.918-7.1-7.918m17.244 0c-4.535 0-7.584 3.176-7.584 7.918v1.135c0 4.729 3.048 7.918 7.584 7.918s7.584-3.176 7.584-7.918v-1.135c0-4.729-3.048-7.918-7.584-7.918m4.852 9.053c0 2.666-1.509 5.358-4.874 5.358s-4.874-2.683-4.874-5.358v-1.135c0-2.666 1.509-5.358 4.874-5.358s4.874 2.692 4.874 5.358zm37.39-8.556h-4.4V37.87h-2.705v21.959h2.705V46.4h4.4c2.745 0 4.4 2.006 4.4 5.362v8.068H208v-8.068c0-4.8-2.784-7.918-7.1-7.918m-10.79 13.412a4.025 4.025 0 01-2.05.51c-2.683 0-4.223-1.953-4.223-5.358V46.4H190v-2.548h-6.158V37.87h-2.71v14.538c0 4.8 2.723 7.918 6.933 7.918a6.744 6.744 0 003.251-.748l.264-.141-1.188-2.327zm-21.343-5.494v8.068h2.71v-8.068c0-3.409 1.544-5.362 4.227-5.362h2.732v-2.548h-2.726c-4.214 0-6.937 3.106-6.937 7.918" transform="translate(-75.218 -21.211)" fill="#3897d5"/><path id="Path_2" data-name="Path 2" class="cls-2" d="M312.872 10.777a7.918 7.918 0 00-7.918-7.918 7.834 7.834 0 00-2.639.44l-1.8-3.3-2.235 1.223 1.808 3.312a7.918 7.918 0 007.478 13.707l1.79 3.312 2.235-1.214-1.795-3.321a7.892 7.892 0 003.079-6.242m-7.918 5.886a5.89 5.89 0 115.877-5.886 5.89 5.89 0 01-5.877 5.886" transform="translate(-166.39)"/><g id="Group_7973" data-name="Group 7973" transform="translate(0 16.659)"><path id="Path_3" data-name="Path 3" class="cls-2" d="M67.3 60.026c0 3.352-1.636 5.358-4.4 5.358s-4.364-2.006-4.364-5.358V51.47H55.82v8.556c0 4.8 2.784 7.918 7.1 7.918s7.1-3.106 7.1-7.918V51.47H67.3z" transform="translate(-31.266 -45.488)"/><path id="Path_4" data-name="Path 4" class="cls-2" d="M8.982 57.256a4.025 4.025 0 01-2.05.51c-2.683 0-4.223-1.953-4.223-5.358V46.4h6.159v-2.548H2.71V37.87H0v14.538c0 4.8 2.723 7.918 6.933 7.918a6.73 6.73 0 003.251-.748l.264-.141-1.188-2.326z" transform="translate(0 -37.87)"/><path id="Path_5" data-name="Path 5" class="cls-2" d="M28.31 59.379v8.068h2.71v-8.068c0-3.409 1.54-5.362 4.227-5.362h2.727V51.47h-2.727c-4.214 0-6.937 3.106-6.937 7.918" transform="translate(-15.857 -45.488)"/><path id="Path_6" data-name="Path 6" class="cls-2" d="M101.978 51.436H96.5v2.547h5.481a4.385 4.385 0 014.443 4.087H94.883l-.031.264a13.226 13.226 0 00-.132 1.658c0 4.729 2.916 7.918 7.258 7.918a7.509 7.509 0 005.525-2.23l.207-.216-1.87-1.918-.216.233A4.839 4.839 0 01102 65.332c-2.639 0-4.342-1.8-4.535-4.733H109.2l.026-.268a9.1 9.1 0 00.035-1c0-4.733-2.916-7.918-7.258-7.918" transform="translate(-53.054 -45.454)"/></g></g></svg>